<?xml version="1.0" encoding="UTF-8"?>
<svg id="Calque_2" data-name="Calque 2" xmlns="http://www.w3.org/2000/svg" viewBox="0 0 62.35 13.52">
  <defs>
    <style>
      .cls-1 {
        fill: #010101;
      }

      .cls-1, .cls-2, .cls-3 {
        stroke-width: 0px;
      }

      .cls-2 {
        fill: #1d1d1b;
      }

      .cls-3 {
        fill: #fff;
      }
    </style>
  </defs>
  <g id="Calque_3" data-name="Calque 3">
    <g>
      <g>
        <path class="cls-1" d="M55.04,13.52c.73,0,1.58-.78,2.01-1.68l4.47-9.72c.36-.74-.04-1.96-.95-2.12h.5c1.28.02,1.48,1.59,1.12,2.35l-4.41,9.5c-.69,1.53-2,1.68-2.74,1.68h0Z"/>
        <path class="cls-1" d="M52.36,13.52c.74,0,1.79-.78,2.18-1.68l4.53-9.72c.35-.74-.06-1.96-.95-2.12h1.4c1.27.02,1.47,1.59,1.12,2.35l-4.41,9.5c-.7,1.53-2.01,1.68-2.74,1.68h-1.12Z"/>
        <path class="cls-1" d="M49.34,13.52c.7,0,1.75-.78,2.18-1.68l4.47-9.72c.37-.74-.04-1.96-.95-2.12h1.96c1.28.02,1.49,1.59,1.12,2.35l-4.41,9.5c-.69,1.53-2,1.68-2.74,1.68h-1.62Z"/>
        <path class="cls-1" d="M45.3,13.52c.73,0,1.78-.78,2.18-1.68l4.53-9.72c.34-.74-.06-1.96-.95-2.12h2.96c1.27.02,1.48,1.59,1.12,2.35l-4.41,9.5c-.7,1.53-2.01,1.68-2.74,1.68h-2.68Z"/>
      </g>
      <path class="cls-1" d="M1.27,13.52c-1.27-.02-1.47-1.59-1.12-2.35L4.57,1.68C5.27.14,6.58,0,7.31,0h7.21l-1.62,3.58h-4.36l-.67,1.4h4.36l-1.68,3.58h-4.36l-.61,1.4h4.3l-1.62,3.58H1.27ZM27.03,0h4.81l-2.35,4.97h1.84L33.63,0h4.81l-6.2,13.52h-4.86l2.35-4.97h-1.84l-2.35,4.97h-4.81L27.03,0ZM20.94,11.46c-.27.65-1.03,2.05-3.19,2.07h-6.59c-1.26-.02-1.47-1.59-1.12-2.35L14.46,1.68C15.17.14,16.48,0,17.2,0h6.99c.62,0,1.75.76,1.12,2.18l-1.62,3.41h-4.53l.95-2.01h-1.68l-3.02,6.37h1.68l1.01-2.12h4.58l-1.73,3.63h0Z"/>
      <path class="cls-3" d="M39.5,9.95h1.79l3.02-6.37h-1.84l-2.96,6.37Z"/>
      <path class="cls-2" d="M49.76.7c-.32-.57-.92-.68-.99-.69h-7.79c-.25,0-.83.04-1.44.43-.57.37-.85.85-.96,1.08l-4.49,9.66c-.3.83-.13,1.67.39,2.08.26.2.56.26.78.27,2.39,0,4.78,0,7.17,0,.3,0,.95-.06,1.63-.46.76-.45,1.12-1.09,1.25-1.36,1.5-3.25,3.01-6.49,4.51-9.74.03-.06.28-.66-.06-1.25ZM41.28,9.95h-1.79l2.96-6.37h1.84l-3.02,6.37Z"/>
    </g>
  </g>
</svg>