<?xml version="1.0" encoding="UTF-8"?>
<svg id="Calque_2" data-name="Calque 2" xmlns="http://www.w3.org/2000/svg" version="1.1" viewBox="0 0 62.3 13.5">
  <defs>
    <style>
      .cls-1 {
        fill: #010101;
      }

      .cls-1, .cls-2, .cls-3 {
        stroke-width: 0px;
      }

      .cls-2 {
        fill: #1d1d1b;
      }

      .cls-3 {
        fill: #fff;
      }
    </style>
  </defs>
  <path class="cls-1" d="M1.3,19.5c-1.3,0-1.5-2.3-1.1-3.5L4.6,2.5C5.3.3,6.6,0,7.3,0h7.2l-1.6,5.2h-4.4l-.7,2h4.4l-1.7,5.2h-4.4l-.6,2h4.3l-1.6,5.2H1.3ZM27,0h4.8l-2.4,7.2h1.8l2.3-7.2h4.8l-6.2,19.5h-4.9l2.4-7.2h-1.8l-2.4,7.2h-4.8L27,0ZM20.9,16.6c-.3.9-1,3-3.2,3h-6.6c-1.3,0-1.5-2.3-1.1-3.3L14.5,2.5c.7-2.2,2-2.5,2.7-2.5h7c.6,0,1.8,1.2,1.1,3.2l-1.6,4.9h-4.5l1-2.9h-1.7l-3,9.3h1.7l1-3h4.6l-1.7,5.2h-.2Z"/>
  <path class="cls-3" d="M39.5,14.3h1.8l3-9.3h-1.8l-3,9.3h0Z"/>
  <path class="cls-2" d="M49.8,1c-.3-.9-.9-1-1-1h-7.8c-.2,0-.8,0-1.4.6-.6.6-.8,1.2-1,1.6l-4.5,14c-.3,1.2,0,2.5.4,3,.3.3.6.4.8.4h7.2c.3,0,1,0,1.6-.7.8-.6,1.1-1.6,1.2-2,1.5-4.6,3-9.4,4.5-14,0,0,.3-1,0-1.7h0ZM41.3,14.3h-1.8l3-9.3h1.8l-3,9.3h0Z"/>
</svg>